<?xml version="1.0" standalone="no"?>
<!DOCTYPE svg PUBLIC "-//W3C//DTD SVG 20010904//EN"
 "http://www.w3.org/TR/2001/REC-SVG-20010904/DTD/svg10.dtd">
<svg version="1.0" xmlns="http://www.w3.org/2000/svg"
 width="406.000000pt" height="406.000000pt" viewBox="0 0 406.000000 406.000000"
 preserveAspectRatio="xMidYMid meet">
<metadata>
Created by potrace 1.11, written by Peter Selinger 2001-2013
</metadata>
<g transform="translate(0.000000,406.000000) scale(0.100000,-0.100000)"
fill="#000000" stroke="none">
<path d="M1860 3963 c-172 -100 -196 -113 -295 -170 -33 -19 -76 -43 -95 -55
-54 -32 -743 -430 -765 -442 -11 -6 -113 -65 -228 -130 l-207 -119 0 -1017 0
-1016 132 -76 c73 -42 291 -167 483 -278 193 -112 364 -210 380 -220 17 -9
180 -103 362 -209 183 -105 348 -200 368 -211 34 -19 36 -19 68 -1 71 40 944
545 972 562 17 11 37 22 45 26 8 4 87 49 174 100 87 51 160 93 162 93 1 0 74
42 161 92 87 51 171 99 186 107 l27 14 0 1017 0 1017 -27 14 c-15 8 -88 50
-163 93 -74 43 -155 90 -180 104 -84 47 -305 175 -326 189 -20 13 -22 10 -48
-59 -15 -40 -32 -82 -37 -93 -23 -52 -129 -339 -129 -351 0 -7 80 -59 178
-116 l177 -103 0 -696 0 -696 -140 -80 c-77 -45 -239 -138 -360 -208 -121 -70
-329 -190 -463 -267 l-243 -140 -82 47 c-45 26 -98 56 -117 67 -95 54 -227
130 -240 138 -17 11 -130 76 -211 123 -31 17 -169 97 -306 176 l-250 145 0
698 0 698 26 13 c14 7 100 56 191 109 91 52 242 139 335 193 322 186 410 237
422 247 28 23 29 -4 1 -122 -15 -69 -30 -134 -32 -145 -3 -11 -28 -119 -56
-240 -28 -121 -63 -269 -76 -330 -14 -60 -27 -117 -29 -125 -39 -171 -56 -241
-60 -252 -2 -7 -7 -25 -10 -40 -13 -67 -17 -88 -36 -168 -22 -92 -26 -109 -35
-156 l-6 -31 84 12 c46 7 103 16 128 20 25 3 72 10 105 15 33 5 80 12 105 15
25 3 54 8 65 10 11 1 45 6 75 10 30 4 63 9 74 12 16 5 18 1 12 -28 -12 -65
-16 -84 -31 -154 -8 -38 -17 -81 -19 -95 -3 -14 -18 -90 -35 -170 -17 -80 -32
-156 -35 -170 -13 -72 -27 -137 -32 -155 -9 -30 -4 -23 361 537 44 68 139 214
213 326 130 199 270 414 286 440 6 10 -2 12 -36 8 -23 -3 -74 -8 -113 -11 -38
-3 -86 -7 -105 -10 -19 -2 -64 -7 -100 -10 -36 -3 -81 -8 -100 -10 -19 -2 -63
-7 -97 -10 l-63 -6 11 28 c54 143 92 241 99 258 16 36 413 1080 417 1095 3 10
-9 23 -31 35 -20 11 -156 90 -303 175 -148 85 -284 163 -303 173 -19 11 -39
23 -44 28 -6 5 -12 9 -15 9 -4 0 -80 -44 -171 -97z"/>
</g>
</svg>
